<svg width="8" height="15" viewBox="0 0 8 15" fill="none" xmlns="http://www.w3.org/2000/svg">
<path d="M3.58594 14.1328V12.8125C1.72656 12.6406 0.1875 11.5078 0.125 9.69531V9.6875L1.48438 9.67969V9.69531C1.625 10.6641 2.22656 11.4375 3.58594 11.5859V7.82812L3.40625 7.78125C1.46094 7.3125 0.414062 6.44531 0.414062 4.91406V4.89844C0.414062 3.22656 1.73438 2.08594 3.58594 1.91406V0.59375H4.52344V1.91406C6.32812 2.07812 7.72656 3.25 7.78906 4.96875V4.97656L6.42969 4.98438V4.96875C6.32812 3.92188 5.57812 3.27344 4.52344 3.14062V6.72656L4.76562 6.78125C6.77344 7.26562 7.89844 8.09375 7.89844 9.72656V9.74219C7.89844 11.6172 6.36719 12.6719 4.52344 12.8203V14.1328H3.58594ZM1.77344 4.82031C1.77344 5.57812 2.24219 6.17188 3.58594 6.5V3.14062C2.39844 3.30469 1.77344 4.05469 1.77344 4.80469V4.82031ZM4.57031 8.0625L4.52344 8.05469V11.6016C5.97656 11.4844 6.53906 10.75 6.53906 9.85156V9.83594C6.53906 8.98438 6.11719 8.4375 4.57031 8.0625Z" fill="white"/>
</svg>
