<svg width="24" height="24" viewBox="0 0 24 24" fill="none" xmlns="http://www.w3.org/2000/svg">
<path d="M21.0348 5.53591V8.16236H2.96582V5.53591C2.97246 5.02866 3.17999 4.54475 3.54291 4.19029C3.90583 3.83584 4.39451 3.63979 4.90178 3.64513H6.19242V4.93577C6.19242 5.44921 6.39638 5.94163 6.75945 6.30469C7.12251 6.66776 7.61493 6.87172 8.12838 6.87172C8.64183 6.87172 9.13424 6.66776 9.49731 6.30469C9.86037 5.94163 10.0643 5.44921 10.0643 4.93577V3.64513H13.9363V4.93577C13.9363 5.44921 14.1402 5.94163 14.5033 6.30469C14.8663 6.66776 15.3588 6.87172 15.8722 6.87172C16.3857 6.87172 16.8781 6.66776 17.2411 6.30469C17.6042 5.94163 17.8082 5.44921 17.8082 4.93577V3.64513H19.0988C19.6061 3.63979 20.0948 3.83584 20.4577 4.19029C20.8206 4.54475 21.0281 5.02866 21.0348 5.53591ZM2.96582 9.453V19.8233C2.97246 20.3305 3.17999 20.8145 3.54291 21.1689C3.90583 21.5234 4.39451 21.7194 4.90178 21.7141H19.0988C19.6061 21.7194 20.0948 21.5234 20.4577 21.1689C20.8206 20.8145 21.0281 20.3305 21.0348 19.8233V9.453H2.96582ZM8.7737 18.4875C8.77319 18.6585 8.70503 18.8223 8.58412 18.9432C8.46321 19.0641 8.29937 19.1323 8.12838 19.1328H6.83774C6.66675 19.1323 6.5029 19.0641 6.38199 18.9432C6.26108 18.8223 6.19293 18.6585 6.19242 18.4875V17.1968C6.19293 17.0258 6.26108 16.862 6.38199 16.7411C6.5029 16.6202 6.66675 16.552 6.83774 16.5515H8.12838C8.29937 16.552 8.46321 16.6202 8.58412 16.7411C8.70503 16.862 8.77319 17.0258 8.7737 17.1968V18.4875ZM8.7737 13.9702C8.77319 14.1412 8.70503 14.3051 8.58412 14.426C8.46321 14.5469 8.29937 14.615 8.12838 14.6156H6.83774C6.66675 14.615 6.5029 14.5469 6.38199 14.426C6.26108 14.3051 6.19293 14.1412 6.19242 13.9702V12.6796C6.19293 12.5086 6.26108 12.3448 6.38199 12.2239C6.5029 12.1029 6.66675 12.0348 6.83774 12.0343H8.12838C8.29937 12.0348 8.46321 12.1029 8.58412 12.2239C8.70503 12.3448 8.77319 12.5086 8.7737 12.6796V13.9702ZM13.2909 18.4875C13.2904 18.6585 13.2223 18.8223 13.1014 18.9432C12.9804 19.0641 12.8166 19.1323 12.6456 19.1328H11.355C11.184 19.1323 11.0201 19.0641 10.8992 18.9432C10.7783 18.8223 10.7102 18.6585 10.7097 18.4875V17.1968C10.7102 17.0258 10.7783 16.862 10.8992 16.7411C11.0201 16.6202 11.184 16.552 11.355 16.5515H12.6456C12.8166 16.552 12.9804 16.6202 13.1014 16.7411C13.2223 16.862 13.2904 17.0258 13.2909 17.1968V18.4875ZM13.2909 13.9702C13.2904 14.1412 13.2223 14.3051 13.1014 14.426C12.9804 14.5469 12.8166 14.615 12.6456 14.6156H11.355C11.184 14.615 11.0201 14.5469 10.8992 14.426C10.7783 14.3051 10.7102 14.1412 10.7097 13.9702V12.6796C10.7102 12.5086 10.7783 12.3448 10.8992 12.2239C11.0201 12.1029 11.184 12.0348 11.355 12.0343H12.6456C12.8166 12.0348 12.9804 12.1029 13.1014 12.2239C13.2223 12.3448 13.2904 12.5086 13.2909 12.6796V13.9702ZM17.8082 13.9702C17.8077 14.1412 17.7395 14.3051 17.6186 14.426C17.4977 14.5469 17.3338 14.615 17.1629 14.6156H15.8722C15.7012 14.615 15.5374 14.5469 15.4165 14.426C15.2956 14.3051 15.2274 14.1412 15.2269 13.9702V12.6796C15.2274 12.5086 15.2956 12.3448 15.4165 12.2239C15.5374 12.1029 15.7012 12.0348 15.8722 12.0343H17.1629C17.3338 12.0348 17.4977 12.1029 17.6186 12.2239C17.7395 12.3448 17.8077 12.5086 17.8082 12.6796V13.9702Z" fill="#4B4B4B"/>
<path d="M8.77404 3.64532V4.93596C8.77404 5.10711 8.70605 5.27125 8.58503 5.39227C8.46401 5.51329 8.29987 5.58128 8.12872 5.58128C7.95757 5.58128 7.79343 5.51329 7.67241 5.39227C7.55139 5.27125 7.4834 5.10711 7.4834 4.93596V3.64532C7.4834 3.47417 7.55139 3.31003 7.67241 3.18901C7.79343 3.06799 7.95757 3 8.12872 3C8.29987 3 8.46401 3.06799 8.58503 3.18901C8.70605 3.31003 8.77404 3.47417 8.77404 3.64532ZM16.5179 3.64532V4.93596C16.5179 5.10711 16.4499 5.27125 16.3289 5.39227C16.2078 5.51329 16.0437 5.58128 15.8726 5.58128C15.7014 5.58128 15.5373 5.51329 15.4162 5.39227C15.2952 5.27125 15.2272 5.10711 15.2272 4.93596V3.64532C15.2272 3.47417 15.2952 3.31003 15.4162 3.18901C15.5373 3.06799 15.7014 3 15.8726 3C16.0437 3 16.2078 3.06799 16.3289 3.18901C16.4499 3.31003 16.5179 3.47417 16.5179 3.64532Z" fill="#4B4B4B"/>
</svg>
