<svg width="12" height="20" viewBox="0 0 12 20" fill="none" xmlns="http://www.w3.org/2000/svg">
<path d="M6.65234 14.0195C7.58203 13.9531 8.31641 13.3516 8.22656 12.5586C8.16797 12.0625 7.84766 11.4961 5.41406 11.6289C2.86719 11.7656 0.695312 9.82812 0.695312 6.80078C0.695312 5.47266 1.11719 4.37891 1.95703 3.52344C2.80078 2.66797 3.94922 2.14844 5.41406 1.97266V0.664062C5.41406 0.398438 5.49219 0.222656 5.64453 0.132812C5.80078 0.0429688 5.92969 0 6.03125 0L6.33984 0.0898438C6.54688 0.207031 6.64844 0.398438 6.64844 0.664062V1.92578C7.74219 1.96875 8.6875 2.12109 9.48438 2.37891C10.2813 2.63672 10.6797 3.02344 10.6797 3.54297C10.6797 4 10.5273 4.60547 10.2266 5.35938C9.92188 6.11328 9.71484 6.51172 9.59375 6.55469C8.38672 6.01172 6.97266 5.60547 5.40625 5.71094C4.45703 5.77734 4.01953 6.21875 4.05469 6.95703C4.08594 7.64453 4.59375 8.19141 6.64844 8.19141C8.70312 8.19141 11.3047 9.80469 11.3047 12.668C11.3047 14.0117 10.9219 15.1641 10.1523 16.125C9.38281 17.0859 8.21875 17.6445 6.65234 17.8086V19.3359C6.65234 19.6016 6.57422 19.7773 6.42187 19.8672C6.26562 19.957 6.13672 20 6.03516 20L5.72656 19.9102C5.51953 19.793 5.41797 19.6016 5.41797 19.3359V17.875C4.17578 17.8438 3.08203 17.625 2.12891 17.2109C1.17578 16.7969 0.699219 16.2734 0.699219 15.6406C0.699219 14.8125 0.949219 13.9805 1.45313 13.1367C1.49609 13.0469 1.55469 12.9531 1.62891 12.8477C2.85156 13.7148 5.59766 14.0938 6.65234 14.0195Z" fill="#4B4B4B"/>
</svg>
