<svg width="24" height="24" viewBox="0 0 24 24" fill="none" xmlns="http://www.w3.org/2000/svg">
<path d="M20.458 19.916H20.2842V9.79194H20.458C20.7572 9.79194 21 9.54916 21 9.24995C21 8.95037 20.7457 8.69677 20.4465 8.69677H14.4618V19.916H13.3778V3.58398H13.587C13.8862 3.58398 14.129 3.34123 14.129 3.04199C14.129 2.74275 13.8862 2.5 13.587 2.5H3.042C2.74277 2.5 2.50001 2.74275 2.50001 3.04199C2.50001 3.34123 2.74277 3.58398 3.042 3.58398H3.26062V19.916H3.042C2.74277 19.916 2.50001 20.1588 2.50001 20.458C2.50001 20.7572 2.74277 21 3.042 21H20.458C20.7572 21 21 20.7572 21 20.458C21 20.1588 20.7572 19.916 20.458 19.916ZM6.61146 19.916H5.52748V17.546C5.52748 17.2466 5.77003 17.004 6.06947 17.004C6.36871 17.004 6.61146 17.2466 6.61146 17.546V19.916ZM6.61146 15.394C6.61146 15.6931 6.36871 15.936 6.06947 15.936C5.77003 15.936 5.52748 15.6931 5.52748 15.394V14.4824C5.52748 14.1827 5.77003 13.9404 6.06947 13.9404C6.36871 13.9404 6.61146 14.1827 6.61146 14.4824V15.394ZM6.61632 12.3054C6.61632 12.6049 6.37345 12.8474 6.07432 12.8474C5.77465 12.8474 5.53233 12.6049 5.53233 12.3054V11.3937C5.53233 11.0945 5.77465 10.8517 6.07432 10.8517C6.37345 10.8517 6.61632 11.0945 6.61632 11.3937V12.3054ZM6.61632 9.23877C6.61632 9.538 6.37345 9.78076 6.07432 9.78076C5.77465 9.78076 5.53233 9.538 5.53233 9.23877V8.32706C5.53233 8.02765 5.77465 7.78507 6.07432 7.78507C6.37345 7.78507 6.61632 8.02765 6.61632 8.32706V9.23877ZM6.62094 6.15008C6.62094 6.44931 6.37807 6.69207 6.07895 6.69207C5.77974 6.69207 5.53696 6.44931 5.53696 6.15008V5.2384C5.53696 4.93896 5.77974 4.69641 6.07895 4.69641C6.37807 4.69641 6.62094 4.93896 6.62094 5.2384V6.15008ZM8.85169 19.916H7.76771V17.546C7.76771 17.2466 8.01026 17.004 8.3097 17.004C8.60894 17.004 8.85169 17.2466 8.85169 17.546V19.916ZM8.85169 15.394C8.85169 15.6931 8.60894 15.936 8.3097 15.936C8.01026 15.936 7.76771 15.6931 7.76771 15.394V14.4824C7.76771 14.1827 8.01026 13.9404 8.3097 13.9404C8.60894 13.9404 8.85169 14.1827 8.85169 14.4824V15.394ZM8.85655 12.3054C8.85655 12.6049 8.61368 12.8474 8.31456 12.8474C8.01489 12.8474 7.77257 12.6049 7.77257 12.3054V11.3937C7.77257 11.0945 8.01489 10.8517 8.31456 10.8517C8.61368 10.8517 8.85655 11.0945 8.85655 11.3937V12.3054ZM8.85655 9.23877C8.85655 9.538 8.61368 9.78076 8.31456 9.78076C8.01489 9.78076 7.77257 9.538 7.77257 9.23877V8.32706C7.77257 8.02765 8.01489 7.78507 8.31456 7.78507C8.61368 7.78507 8.85655 8.02765 8.85655 8.32706V9.23877ZM8.86117 6.15008C8.86117 6.44931 8.6183 6.69207 8.31918 6.69207C8.01997 6.69207 7.77719 6.44931 7.77719 6.15008V5.2384C7.77719 4.93896 8.01997 4.69641 8.31918 4.69641C8.6183 4.69641 8.86117 4.93896 8.86117 5.2384V6.15008ZM11.092 19.916H10.008V17.546C10.008 17.2466 10.2505 17.004 10.55 17.004C10.8492 17.004 11.092 17.2466 11.092 17.546V19.916ZM11.092 15.394C11.092 15.6931 10.8492 15.936 10.55 15.936C10.2505 15.936 10.008 15.6931 10.008 15.394V14.4824C10.008 14.1827 10.2505 13.9404 10.55 13.9404C10.8492 13.9404 11.092 14.1827 11.092 14.4824V15.394ZM11.0968 12.3054C11.0968 12.6049 10.8539 12.8474 10.5548 12.8474C10.2551 12.8474 10.0128 12.6049 10.0128 12.3054V11.3937C10.0128 11.0945 10.2551 10.8517 10.5548 10.8517C10.8539 10.8517 11.0968 11.0945 11.0968 11.3937V12.3054ZM11.0968 9.23877C11.0968 9.538 10.8539 9.78076 10.5548 9.78076C10.2551 9.78076 10.0128 9.538 10.0128 9.23877V8.32706C10.0128 8.02765 10.2551 7.78507 10.5548 7.78507C10.8539 7.78507 11.0968 8.02765 11.0968 8.32706V9.23877ZM11.1014 6.15008C11.1014 6.44931 10.8586 6.69207 10.5594 6.69207C10.2602 6.69207 10.0175 6.44931 10.0175 6.15008V5.2384C10.0175 4.93896 10.2602 4.69641 10.5594 4.69641C10.8586 4.69641 11.1014 4.93896 11.1014 5.2384V6.15008ZM15.7087 14.4824C15.7087 14.1827 15.9512 13.9404 16.2507 13.9404C16.5499 13.9404 16.7927 14.1827 16.7927 14.4824V15.394C16.7927 15.6931 16.5499 15.936 16.2507 15.936C15.9512 15.936 15.7087 15.6931 15.7087 15.394V14.4824ZM16.7949 19.916H15.7109V17.7745C15.7109 17.4749 15.9537 17.2325 16.2529 17.2325C16.5524 17.2325 16.7949 17.4749 16.7949 17.7745V19.916ZM16.7974 12.3054C16.7974 12.6049 16.5545 12.8474 16.2554 12.8474C15.9559 12.8474 15.7134 12.6049 15.7134 12.3054V11.3937C15.7134 11.0945 15.9559 10.8517 16.2554 10.8517C16.5545 10.8517 16.7974 11.0945 16.7974 11.3937V12.3054ZM17.9489 14.4824C17.9489 14.1827 18.1914 13.9404 18.4909 13.9404C18.7901 13.9404 19.0329 14.1827 19.0329 14.4824V15.394C19.0329 15.6931 18.7901 15.936 18.4909 15.936C18.1914 15.936 17.9489 15.6931 17.9489 15.394V14.4824ZM19.0352 19.916H17.9512V17.7745C17.9512 17.4749 18.194 17.2325 18.4932 17.2325C18.7926 17.2325 19.0352 17.4749 19.0352 17.7745V19.916ZM19.0376 12.3054C19.0376 12.6049 18.7948 12.8474 18.4957 12.8474C18.1961 12.8474 17.9537 12.6049 17.9537 12.3054V11.3937C17.9537 11.0945 18.1961 10.8517 18.4957 10.8517C18.7948 10.8517 19.0376 11.0945 19.0376 11.3937V12.3054Z" fill="#4B4B4B"/>
</svg>
