<svg width="25" height="24" viewBox="0 0 25 24" fill="none" xmlns="http://www.w3.org/2000/svg">
<g clip-path="url(#clip0_79_7014)">
<path d="M12.5 21C12.5 21.2652 12.3946 21.5196 12.2071 21.7071C12.0196 21.8946 11.7652 22 11.5 22H5.5C2.743 22 0.5 19.757 0.5 17V5C0.5 2.243 2.743 0 5.5 0H17.5C20.257 0 22.5 2.243 22.5 5V11C22.5 11.2652 22.3946 11.5196 22.2071 11.7071C22.0196 11.8946 21.7652 12 21.5 12C21.2348 12 20.9804 11.8946 20.7929 11.7071C20.6054 11.5196 20.5 11.2652 20.5 11V5C20.5 3.346 19.154 2 17.5 2H5.5C3.846 2 2.5 3.346 2.5 5V11.959L5.308 9.151C6.04541 8.41467 7.04491 8.0011 8.087 8.0011C9.12909 8.0011 10.1286 8.41467 10.866 9.151L16.207 14.492C16.3945 14.6795 16.4998 14.9338 16.4998 15.199C16.4998 15.4642 16.3945 15.7185 16.207 15.906C16.0195 16.0935 15.7652 16.1988 15.5 16.1988C15.2348 16.1988 14.9805 16.0935 14.793 15.906L9.452 10.565C9.08938 10.2041 8.5986 10.0015 8.087 10.0015C7.5754 10.0015 7.08462 10.2041 6.722 10.565L2.5 14.787V17C2.5 18.654 3.846 20 5.5 20H11.5C11.7652 20 12.0196 20.1054 12.2071 20.2929C12.3946 20.4804 12.5 20.7348 12.5 21ZM15.5 3.5C17.154 3.5 18.5 4.846 18.5 6.5C18.5 8.154 17.154 9.5 15.5 9.5C13.846 9.5 12.5 8.154 12.5 6.5C12.5 4.846 13.846 3.5 15.5 3.5ZM15.5 5.5C15.2425 5.51152 14.9994 5.62191 14.8213 5.80818C14.6431 5.99446 14.5437 6.24226 14.5437 6.5C14.5437 6.75774 14.6431 7.00554 14.8213 7.19182C14.9994 7.37809 15.2425 7.48848 15.5 7.5C15.7575 7.48848 16.0006 7.37809 16.1787 7.19182C16.3569 7.00554 16.4563 6.75774 16.4563 6.5C16.4563 6.24226 16.3569 5.99446 16.1787 5.80818C16.0006 5.62191 15.7575 5.51152 15.5 5.5ZM23.5 18H20.5V15C20.5 14.7348 20.3946 14.4804 20.2071 14.2929C20.0196 14.1054 19.7652 14 19.5 14C19.2348 14 18.9804 14.1054 18.7929 14.2929C18.6054 14.4804 18.5 14.7348 18.5 15V18H15.5C15.2348 18 14.9804 18.1054 14.7929 18.2929C14.6054 18.4804 14.5 18.7348 14.5 19C14.5 19.2652 14.6054 19.5196 14.7929 19.7071C14.9804 19.8946 15.2348 20 15.5 20H18.5V23C18.5 23.2652 18.6054 23.5196 18.7929 23.7071C18.9804 23.8946 19.2348 24 19.5 24C19.7652 24 20.0196 23.8946 20.2071 23.7071C20.3946 23.5196 20.5 23.2652 20.5 23V20H23.5C23.7652 20 24.0196 19.8946 24.2071 19.7071C24.3946 19.5196 24.5 19.2652 24.5 19C24.5 18.7348 24.3946 18.4804 24.2071 18.2929C24.0196 18.1054 23.7652 18 23.5 18Z" fill="white"/>
</g>
<defs>
<clipPath id="clip0_79_7014">
<rect width="24" height="24" fill="white" transform="translate(0.5)"/>
</clipPath>
</defs>
</svg>
