<svg width="20" height="20" viewBox="0 0 20 20" fill="none" xmlns="http://www.w3.org/2000/svg">
<path d="M3.51382 10.0704C3.48057 6.45496 6.43286 3.5126 9.99488 3.5126C10.8763 3.5126 11.7611 3.68428 12.559 4.02455L11.2142 5.37038L18.3633 7.19227L16.5414 0.042139L15.1538 1.42981C13.6118 0.492416 11.8125 -0.0012207 9.99488 -0.0012207C4.65777 -0.0012207 0.261369 4.21452 0.0222658 9.54581L0 10.0401L3.52069 10.8024L3.51382 10.0704ZM16.476 9.99366C16.476 13.5812 13.4976 16.4747 9.99488 16.4747C9.12683 16.4747 8.23159 16.2999 7.44174 15.964L8.73968 14.6657L1.58814 12.8277L3.42671 19.978L4.83203 18.5731C6.38646 19.5007 8.18714 19.9885 9.99488 19.9885C15.3199 19.9885 19.7153 15.7895 19.9663 10.4782L19.9898 9.98284C20.2177 10.0291 16.5939 9.2919 16.476 9.26799V9.99366Z" fill="#4B4B4B"/>
</svg>
